<mxfile host="app.diagrams.net" modified="2023-11-28T13:06:43.799Z" agent="Mozilla/5.0 (Windows NT 10.0; Win64; x64) AppleWebKit/537.36 (KHTML, like Gecko) Chrome/119.0.0.0 Safari/537.36" etag="WTZoRgeRG6rrNWohoO6c" version="22.1.4" type="github">
  <diagram name="Page-1" id="s07OKNFXpc9BnUIidqXX">
    <mxGraphModel dx="1114" dy="648" grid="1" gridSize="12" guides="1" tooltips="1" connect="1" arrows="1" fold="1" page="1" pageScale="1" pageWidth="850" pageHeight="1100" background="#AF34EC" math="0" shadow="1">
      <root>
        <mxCell id="0" />
        <mxCell id="1" parent="0" />
        <mxCell id="AUShGhwUuacC1Zj_W99A-14" style="rounded=0;orthogonalLoop=1;jettySize=auto;html=1;exitX=0.5;exitY=1;exitDx=0;exitDy=0;" parent="1" source="AUShGhwUuacC1Zj_W99A-1" target="AUShGhwUuacC1Zj_W99A-8" edge="1">
          <mxGeometry relative="1" as="geometry" />
        </mxCell>
        <mxCell id="AUShGhwUuacC1Zj_W99A-1" value="MULAI" style="ellipse;whiteSpace=wrap;html=1;fontStyle=1" parent="1" vertex="1">
          <mxGeometry x="374" y="12" width="72" height="28" as="geometry" />
        </mxCell>
        <mxCell id="AUShGhwUuacC1Zj_W99A-16" style="edgeStyle=orthogonalEdgeStyle;rounded=0;orthogonalLoop=1;jettySize=auto;html=1;exitX=0.5;exitY=1;exitDx=0;exitDy=0;entryX=0.5;entryY=0;entryDx=0;entryDy=0;" parent="1" source="AUShGhwUuacC1Zj_W99A-3" target="AUShGhwUuacC1Zj_W99A-4" edge="1">
          <mxGeometry relative="1" as="geometry" />
        </mxCell>
        <mxCell id="AUShGhwUuacC1Zj_W99A-3" value="TEBAK 1 -70" style="rounded=1;whiteSpace=wrap;html=1;" parent="1" vertex="1">
          <mxGeometry x="365" y="120" width="90" height="30" as="geometry" />
        </mxCell>
        <mxCell id="AUShGhwUuacC1Zj_W99A-17" value="" style="edgeStyle=orthogonalEdgeStyle;rounded=0;orthogonalLoop=1;jettySize=auto;html=1;exitX=1;exitY=0.5;exitDx=0;exitDy=0;entryX=0.5;entryY=0;entryDx=0;entryDy=0;" parent="1" source="AUShGhwUuacC1Zj_W99A-4" target="AUShGhwUuacC1Zj_W99A-37" edge="1">
          <mxGeometry x="0.1016" y="44" relative="1" as="geometry">
            <mxPoint x="553.8461538461538" y="202.30769230769226" as="targetPoint" />
            <mxPoint as="offset" />
          </mxGeometry>
        </mxCell>
        <mxCell id="AUShGhwUuacC1Zj_W99A-39" value="" style="edgeStyle=orthogonalEdgeStyle;rounded=0;orthogonalLoop=1;jettySize=auto;html=1;exitX=0;exitY=0.5;exitDx=0;exitDy=0;entryX=0;entryY=0.25;entryDx=0;entryDy=0;" parent="1" source="AUShGhwUuacC1Zj_W99A-4" target="AUShGhwUuacC1Zj_W99A-44" edge="1">
          <mxGeometry relative="1" as="geometry">
            <mxPoint x="540" y="460" as="targetPoint" />
            <Array as="points">
              <mxPoint x="320" y="200" />
              <mxPoint x="320" y="459" />
            </Array>
          </mxGeometry>
        </mxCell>
        <mxCell id="AUShGhwUuacC1Zj_W99A-4" value="IF(input==Angka)" style="rhombus;whiteSpace=wrap;html=1;" parent="1" vertex="1">
          <mxGeometry x="340" y="170" width="140" height="60" as="geometry" />
        </mxCell>
        <mxCell id="AUShGhwUuacC1Zj_W99A-19" style="edgeStyle=orthogonalEdgeStyle;rounded=0;orthogonalLoop=1;jettySize=auto;html=1;exitX=0.5;exitY=1;exitDx=0;exitDy=0;entryX=0.5;entryY=0;entryDx=0;entryDy=0;" parent="1" source="AUShGhwUuacC1Zj_W99A-6" target="AUShGhwUuacC1Zj_W99A-7" edge="1">
          <mxGeometry relative="1" as="geometry" />
        </mxCell>
        <mxCell id="AUShGhwUuacC1Zj_W99A-20" style="rounded=0;orthogonalLoop=1;jettySize=auto;html=1;exitX=1;exitY=0.5;exitDx=0;exitDy=0;entryX=0;entryY=0.25;entryDx=0;entryDy=0;" parent="1" source="AUShGhwUuacC1Zj_W99A-6" target="AUShGhwUuacC1Zj_W99A-12" edge="1">
          <mxGeometry relative="1" as="geometry" />
        </mxCell>
        <mxCell id="AUShGhwUuacC1Zj_W99A-6" value="IF(input&amp;lt;Angka)" style="rhombus;whiteSpace=wrap;html=1;" parent="1" vertex="1">
          <mxGeometry x="540" y="290" width="120" height="40" as="geometry" />
        </mxCell>
        <mxCell id="AUShGhwUuacC1Zj_W99A-21" style="rounded=0;orthogonalLoop=1;jettySize=auto;html=1;exitX=1;exitY=0.5;exitDx=0;exitDy=0;" parent="1" source="AUShGhwUuacC1Zj_W99A-7" target="AUShGhwUuacC1Zj_W99A-13" edge="1">
          <mxGeometry relative="1" as="geometry" />
        </mxCell>
        <mxCell id="AUShGhwUuacC1Zj_W99A-47" style="edgeStyle=none;rounded=0;orthogonalLoop=1;jettySize=auto;html=1;exitX=0.5;exitY=1;exitDx=0;exitDy=0;" parent="1" source="AUShGhwUuacC1Zj_W99A-7" target="AUShGhwUuacC1Zj_W99A-46" edge="1">
          <mxGeometry relative="1" as="geometry" />
        </mxCell>
        <mxCell id="AUShGhwUuacC1Zj_W99A-7" value="IF(input&amp;gt;Angka)" style="rhombus;whiteSpace=wrap;html=1;" parent="1" vertex="1">
          <mxGeometry x="540" y="347.5" width="120" height="32.5" as="geometry" />
        </mxCell>
        <mxCell id="AUShGhwUuacC1Zj_W99A-15" style="rounded=0;orthogonalLoop=1;jettySize=auto;html=1;exitX=0.5;exitY=1;exitDx=0;exitDy=0;" parent="1" source="AUShGhwUuacC1Zj_W99A-8" target="AUShGhwUuacC1Zj_W99A-3" edge="1">
          <mxGeometry relative="1" as="geometry" />
        </mxCell>
        <mxCell id="AUShGhwUuacC1Zj_W99A-8" value="INPUT ANGKA" style="shape=parallelogram;perimeter=parallelogramPerimeter;whiteSpace=wrap;html=1;fixedSize=1;" parent="1" vertex="1">
          <mxGeometry x="357.5" y="60" width="110" height="30" as="geometry" />
        </mxCell>
        <mxCell id="AUShGhwUuacC1Zj_W99A-25" style="edgeStyle=none;rounded=0;orthogonalLoop=1;jettySize=auto;html=1;exitX=0.5;exitY=1;exitDx=0;exitDy=0;" parent="1" edge="1">
          <mxGeometry relative="1" as="geometry">
            <mxPoint x="600" y="480" as="sourcePoint" />
            <mxPoint x="601.0245901639344" y="500.4918032786886" as="targetPoint" />
          </mxGeometry>
        </mxCell>
        <mxCell id="AUShGhwUuacC1Zj_W99A-28" value="" style="edgeStyle=none;rounded=0;orthogonalLoop=1;jettySize=auto;html=1;" parent="1" target="AUShGhwUuacC1Zj_W99A-11" edge="1">
          <mxGeometry relative="1" as="geometry">
            <mxPoint x="600" y="504" as="sourcePoint" />
          </mxGeometry>
        </mxCell>
        <mxCell id="AUShGhwUuacC1Zj_W99A-11" value="SELESAI" style="ellipse;whiteSpace=wrap;html=1;" parent="1" vertex="1">
          <mxGeometry x="555" y="610" width="90" height="40" as="geometry" />
        </mxCell>
        <mxCell id="AUShGhwUuacC1Zj_W99A-52" style="edgeStyle=none;rounded=0;sketch=1;hachureGap=4;jiggle=2;curveFitting=1;orthogonalLoop=1;jettySize=auto;html=1;exitX=1;exitY=0.75;exitDx=0;exitDy=0;fontFamily=Architects Daughter;fontSource=https%3A%2F%2Ffonts.googleapis.com%2Fcss%3Ffamily%3DArchitects%2BDaughter;fontSize=16;" parent="1" source="AUShGhwUuacC1Zj_W99A-12" edge="1">
          <mxGeometry relative="1" as="geometry">
            <mxPoint x="864" y="320.57142857142856" as="targetPoint" />
          </mxGeometry>
        </mxCell>
        <mxCell id="AUShGhwUuacC1Zj_W99A-12" value="&lt;div&gt;angka saya lebih &lt;br&gt;&lt;/div&gt;&lt;div&gt;besar dai itu&lt;br&gt;&lt;/div&gt;" style="shape=parallelogram;perimeter=parallelogramPerimeter;whiteSpace=wrap;html=1;fixedSize=1;" parent="1" vertex="1">
          <mxGeometry x="700" y="300" width="130" height="30" as="geometry" />
        </mxCell>
        <mxCell id="AUShGhwUuacC1Zj_W99A-34" value="3x" style="edgeStyle=elbowEdgeStyle;rounded=0;orthogonalLoop=1;jettySize=auto;html=1;exitX=1;exitY=0.75;exitDx=0;exitDy=0;" parent="1" source="AUShGhwUuacC1Zj_W99A-13" edge="1">
          <mxGeometry relative="1" as="geometry">
            <mxPoint x="408" y="108" as="targetPoint" />
            <mxPoint x="829.02" y="371.99000000000007" as="sourcePoint" />
            <Array as="points">
              <mxPoint x="863" y="84" />
              <mxPoint x="863.47" y="173.98" />
            </Array>
          </mxGeometry>
        </mxCell>
        <mxCell id="AUShGhwUuacC1Zj_W99A-13" value="&lt;div&gt;angka saya lebih &lt;br&gt;&lt;/div&gt;&lt;div&gt;kecil dai itu&lt;br&gt;&lt;/div&gt;" style="shape=parallelogram;perimeter=parallelogramPerimeter;whiteSpace=wrap;html=1;fixedSize=1;" parent="1" vertex="1">
          <mxGeometry x="700" y="347.5" width="130" height="35" as="geometry" />
        </mxCell>
        <mxCell id="AUShGhwUuacC1Zj_W99A-38" value="" style="edgeStyle=none;rounded=0;orthogonalLoop=1;jettySize=auto;html=1;exitX=0;exitY=0.5;exitDx=0;exitDy=0;" parent="1" source="AUShGhwUuacC1Zj_W99A-37" edge="1">
          <mxGeometry relative="1" as="geometry">
            <mxPoint x="324" y="255" as="targetPoint" />
          </mxGeometry>
        </mxCell>
        <mxCell id="AUShGhwUuacC1Zj_W99A-40" style="edgeStyle=none;rounded=0;orthogonalLoop=1;jettySize=auto;html=1;exitX=0.5;exitY=1;exitDx=0;exitDy=0;" parent="1" source="AUShGhwUuacC1Zj_W99A-37" target="AUShGhwUuacC1Zj_W99A-6" edge="1">
          <mxGeometry relative="1" as="geometry" />
        </mxCell>
        <mxCell id="AUShGhwUuacC1Zj_W99A-37" value="IF(input==Angka)" style="rhombus;whiteSpace=wrap;html=1;" parent="1" vertex="1">
          <mxGeometry x="545" y="230" width="115" height="50" as="geometry" />
        </mxCell>
        <mxCell id="AUShGhwUuacC1Zj_W99A-44" value="jawaban benar" style="shape=parallelogram;perimeter=parallelogramPerimeter;whiteSpace=wrap;html=1;fixedSize=1;" parent="1" vertex="1">
          <mxGeometry x="540" y="450" width="120" height="30" as="geometry" />
        </mxCell>
        <mxCell id="AUShGhwUuacC1Zj_W99A-48" style="edgeStyle=none;rounded=0;orthogonalLoop=1;jettySize=auto;html=1;exitX=0.5;exitY=1;exitDx=0;exitDy=0;" parent="1" source="AUShGhwUuacC1Zj_W99A-46" target="AUShGhwUuacC1Zj_W99A-44" edge="1">
          <mxGeometry relative="1" as="geometry" />
        </mxCell>
        <mxCell id="AUShGhwUuacC1Zj_W99A-46" value="jawaban sala 3x dinyatakan kalah" style="rounded=0;whiteSpace=wrap;html=1;" parent="1" vertex="1">
          <mxGeometry x="540" y="390" width="120" height="42.5" as="geometry" />
        </mxCell>
      </root>
    </mxGraphModel>
  </diagram>
</mxfile>
